# xmcd
#
# Track frame offsets:
#	150
#	18228
#	43943
#	63350
#	80768
#	96145
#	121953
#	139183
#	159223
#	184055
#	201873
#
# Disc length: 2806 seconds
#
# Revision: 0
# Processed by: cddbd v1.4PL0 Copyright (c) Steve Scherf et al.
# Submitted via: OrangeCD 4.1
#
DISCID=910af40b
DTITLE=Joe Henry - Fuse
DYEAR=1900
DGENRE=
TTITLE0=Monkey
TTITLE1=Angels
TTITLE2=Fuse
TTITLE3=Skin and Teeth
TTITLE4=Fat
TTITLE5=Want Too Much
TTITLE6=Curt Flood
TTITLE7=Like She Was a Hammer
TTITLE8=Great Lake
TTITLE9=Beautiful Hat
TTITLE10=We'll Meet Again
EXTD=
EXTT0=
EXTT1=
EXTT2=
EXTT3=
EXTT4=
EXTT5=
EXTT6=
EXTT7=
EXTT8=
EXTT9=
EXTT10=
PLAYORDER=
